<svg width="192" height="48" viewBox="0 0 192 48" fill="none" xmlns="http://www.w3.org/2000/svg">
<path fill-rule="evenodd" clip-rule="evenodd" d="M34.8719 14V22.0492H24.9022V19.7565L34.8719 14Z" fill="#1570EF"/>
<path opacity="0.9" fill-rule="evenodd" clip-rule="evenodd" d="M34.8699 14.0001L24.9001 19.7566L17.5488 15.513V4L34.8699 14.0001Z" fill="#1570EF"/>
<path opacity="0.8" fill-rule="evenodd" clip-rule="evenodd" d="M17.5512 4V15.513L10.2022 19.7566L0.232483 14.0001L17.5512 4Z" fill="#1570EF"/>
<path opacity="0.7" fill-rule="evenodd" clip-rule="evenodd" d="M10.2004 19.7565V28.2434L0.230713 33.9994V14.0001L10.2004 19.7565Z" fill="#1570EF"/>
<path opacity="0.6" fill-rule="evenodd" clip-rule="evenodd" d="M17.5494 32.487V44L0.230713 33.9994L10.2004 28.2434L17.5494 32.487Z" fill="#1570EF"/>
<path opacity="0.5" fill-rule="evenodd" clip-rule="evenodd" d="M34.8699 33.9994L17.5488 44V32.4871L24.9001 28.2434L34.8699 33.9994Z" fill="#1570EF"/>
<path opacity="0.4" fill-rule="evenodd" clip-rule="evenodd" d="M34.872 25.9507V33.9994L24.9022 28.2434V25.9507H34.872Z" fill="#1570EF"/>
<path d="M62.077 26.1149C61.294 30.7319 58.324 33.4319 53.734 33.4319C48.064 33.4319 44.5 29.1119 44.5 23.4419C44.5 17.7449 48.064 13.3979 53.734 13.3979C58.162 13.3979 61.159 15.9899 61.996 20.4179L57.703 20.6069C57.244 18.2309 55.786 16.8809 53.653 16.8809C50.278 16.8809 48.739 19.7159 48.739 23.4419C48.739 27.1409 50.305 29.9489 53.653 29.9489C55.867 29.9489 57.352 28.4909 57.757 25.9259L62.077 26.1149Z" fill="#0A0D12"/>
<path d="M63.2519 23.1179C63.8189 20.0669 66.1679 18.3659 69.9209 18.3659C74.2679 18.3659 76.5089 20.4989 76.5089 24.6029V29.0849C76.5089 30.0299 76.8869 30.2189 77.3999 30.2189H77.9399V33L77.2109 33.0269C76.2659 33.0539 73.4849 33.3239 73.0799 30.8399C72.4049 32.2979 70.7579 33.3239 68.1659 33.3239C65.2769 33.3239 63.0359 31.7579 63.0359 29.2469C63.0359 26.5739 65.0069 25.5749 68.4629 24.8729L72.4049 24.0899C72.3779 22.011 71.5679 21.0389 69.9209 21.0389C68.5439 21.0389 67.6799 21.7949 67.3559 23.3339L63.2519 23.1179ZM67.2209 29.0849C67.2209 29.976 67.9769 30.6779 69.4349 30.6779C71.1899 30.6779 72.4589 29.3549 72.4589 26.7899V26.6279L70.0829 27.0599C68.4359 27.3839 67.2209 27.6269 67.2209 29.0849Z" fill="#0A0D12"/>
<path d="M79.3747 13.8299H83.4787V28.8419C83.4787 29.5439 83.8567 29.9489 84.5587 29.9489H85.5847V33H83.3707C80.9947 33 79.3747 31.5689 79.3747 29.0039V13.8299Z" fill="#0A0D12"/>
<path d="M86.2412 25.8449C86.2412 21.3089 89.1572 18.3659 93.5852 18.3659C97.5272 18.3659 100.605 21.0929 100.578 26.1419V26.8979H90.5072C90.6152 29.0309 91.7492 30.2999 93.5852 30.2999C94.7732 30.2999 95.8262 29.6249 96.2852 28.5179L100.389 28.8149C99.5252 31.5959 96.8522 33.3239 93.5852 33.3239C89.1572 33.3239 86.2412 30.3809 86.2412 25.8449ZM90.5342 24.4409H96.4472C96.2312 22.2809 94.9892 21.3899 93.5852 21.3899C91.8572 21.3899 90.7502 22.5509 90.5342 24.4409Z" fill="#0A0D12"/>
<path d="M110.875 23.3339C110.659 22.0109 109.525 21.2009 108.283 21.2009C107.068 21.2009 106.123 21.8489 106.177 22.8749C106.231 23.9279 107.446 24.3869 108.796 24.6029C113.008 25.2779 115.087 26.3849 115.087 29.0849C115.087 31.9469 112.387 33.3239 108.715 33.3239C104.53 33.3239 101.857 31.5149 101.641 28.4639L105.745 28.2479C105.988 29.625 106.987 30.462 108.634 30.462C109.66 30.462 110.902 30.0299 110.902 29.0039C110.875 27.7889 109.498 27.5729 108.121 27.2759C104.179 26.5199 101.965 25.5479 101.965 22.9019C101.965 20.0399 104.368 18.3389 108.445 18.3389C112.063 18.3389 114.493 20.1749 114.979 23.1719L110.875 23.3339Z" fill="#0A0D12"/>
<path d="M126.296 24.1709C126.053 22.4429 124.919 21.4979 123.488 21.4979C121.463 21.4979 120.329 23.0909 120.329 25.8449C120.329 28.5989 121.463 30.1919 123.488 30.1919C125 30.1919 126.107 29.2469 126.35 27.3839L130.562 27.5459C130.184 31.1099 127.295 33.3239 123.488 33.3239C119.06 33.3239 116.144 30.3809 116.144 25.8449C116.144 21.3089 119.06 18.3659 123.488 18.3659C127.187 18.3659 130.103 20.4989 130.481 23.9819L126.296 24.1709Z" fill="#0A0D12"/>
<path d="M131.306 25.8449C131.306 21.3089 134.222 18.3659 138.65 18.3659C142.592 18.3659 145.67 21.0929 145.643 26.1419V26.8979H135.572C135.68 29.0309 136.814 30.2999 138.65 30.2999C139.838 30.2999 140.891 29.6249 141.35 28.5179L145.454 28.8149C144.59 31.5959 141.917 33.3239 138.65 33.3239C134.222 33.3239 131.306 30.3809 131.306 25.8449ZM135.599 24.4409H141.512C141.296 22.2809 140.054 21.3899 138.65 21.3899C136.922 21.3899 135.815 22.5509 135.599 24.4409Z" fill="#0A0D12"/>
<path d="M147.17 18.6899H150.842L150.95 20.9849C151.733 19.0949 153.326 18.3659 155.216 18.3659C158.348 18.3659 160.157 20.4719 160.157 23.7929V33H156.08V25.1429C156.08 22.8749 155.567 21.6059 153.893 21.6059C152.165 21.6059 151.274 22.8749 151.274 25.1429V33H147.17V18.6899Z" fill="#0A0D12"/>
<path d="M171.703 24.1709C171.46 22.4429 170.326 21.4979 168.895 21.4979C166.87 21.4979 165.736 23.0909 165.736 25.8449C165.736 28.5989 166.87 30.1919 168.895 30.1919C170.407 30.1919 171.514 29.2469 171.757 27.3839L175.969 27.5459C175.591 31.1099 172.702 33.3239 168.895 33.3239C164.467 33.3239 161.551 30.3809 161.551 25.8449C161.551 21.3089 164.467 18.3659 168.895 18.3659C172.594 18.3659 175.51 20.4989 175.888 23.9819L171.703 24.1709Z" fill="#0A0D12"/>
<path d="M176.713 25.8449C176.713 21.3089 179.629 18.3659 184.057 18.3659C187.999 18.3659 191.077 21.0929 191.05 26.1419V26.8979H180.979C181.087 29.0309 182.221 30.2999 184.057 30.2999C185.245 30.2999 186.298 29.6249 186.757 28.5179L190.861 28.8149C189.997 31.5959 187.324 33.3239 184.057 33.3239C179.629 33.3239 176.713 30.3809 176.713 25.8449ZM181.006 24.4409H186.919C186.703 22.2809 185.461 21.3899 184.057 21.3899C182.329 21.3899 181.222 22.5509 181.006 24.4409Z" fill="#0A0D12"/>
</svg>
