<svg width="177" height="48" viewBox="0 0 177 48" fill="none" xmlns="http://www.w3.org/2000/svg">
<path d="M17.0999 28.5854V43H20.8999V28.5883L31.0901 38.7785L33.7771 36.0915L23.5856 25.9H37.998V22.1H23.5853L33.7769 11.9085L31.0898 9.22148L20.8999 19.4114V5H17.0999V19.4143L6.90708 9.22146L4.22008 11.9085L14.4116 22.1H-0.00195312V25.9H14.4113L4.21979 36.0915L6.9068 38.7785L17.0999 28.5854Z" fill="#0A0D12"/>
<path d="M48 33V13.4H55.028L58.92 30.48H59.424V13.4H63.064V33H56.036L52.144 15.92H51.64V33H48Z" fill="#0A0D12"/>
<path d="M72.0778 33.392C70.6965 33.392 69.4551 33.112 68.3538 32.552C67.2525 31.992 66.3845 31.18 65.7498 30.116C65.1151 29.052 64.7978 27.7733 64.7978 26.28V25.832C64.7978 24.3387 65.1151 23.06 65.7498 21.996C66.3845 20.932 67.2525 20.12 68.3538 19.56C69.4551 19 70.6965 18.72 72.0778 18.72C73.4591 18.72 74.7005 19 75.8018 19.56C76.9031 20.12 77.7711 20.932 78.4058 21.996C79.0405 23.06 79.3578 24.3387 79.3578 25.832V26.28C79.3578 27.7733 79.0405 29.052 78.4058 30.116C77.7711 31.18 76.9031 31.992 75.8018 32.552C74.7005 33.112 73.4591 33.392 72.0778 33.392ZM72.0778 30.256C73.1605 30.256 74.0565 29.9107 74.7658 29.22C75.4751 28.5107 75.8298 27.5027 75.8298 26.196V25.916C75.8298 24.6093 75.4751 23.6107 74.7658 22.92C74.0751 22.2107 73.1791 21.856 72.0778 21.856C70.9951 21.856 70.0991 22.2107 69.3898 22.92C68.6805 23.6107 68.3258 24.6093 68.3258 25.916V26.196C68.3258 27.5027 68.6805 28.5107 69.3898 29.22C70.0991 29.9107 70.9951 30.256 72.0778 30.256Z" fill="#0A0D12"/>
<path d="M81.2143 33V19.112H84.6863V20.68H85.1903C85.3957 20.12 85.7317 19.7093 86.1983 19.448C86.6837 19.1867 87.2437 19.056 87.8783 19.056H89.5583V22.192H87.8223C86.9263 22.192 86.189 22.4347 85.6103 22.92C85.0317 23.3867 84.7423 24.1147 84.7423 25.104V33H81.2143Z" fill="#0A0D12"/>
<path d="M96.3558 33.392C94.5451 33.392 93.0611 33 91.9038 32.216C90.7464 31.432 90.0464 30.312 89.8038 28.856L93.0518 28.016C93.1824 28.6693 93.3971 29.1827 93.6958 29.556C94.0131 29.9293 94.3958 30.2 94.8438 30.368C95.3104 30.5173 95.8144 30.592 96.3558 30.592C97.1771 30.592 97.7838 30.452 98.1758 30.172C98.5678 29.8733 98.7638 29.5093 98.7638 29.08C98.7638 28.6507 98.5771 28.324 98.2038 28.1C97.8304 27.8573 97.2331 27.6613 96.4118 27.512L95.6278 27.372C94.6571 27.1853 93.7704 26.9333 92.9678 26.616C92.1651 26.28 91.5211 25.8227 91.0358 25.244C90.5504 24.6653 90.3078 23.9187 90.3078 23.004C90.3078 21.6227 90.8118 20.568 91.8198 19.84C92.8278 19.0933 94.1531 18.72 95.7958 18.72C97.3451 18.72 98.6331 19.0653 99.6598 19.756C100.686 20.4467 101.358 21.352 101.676 22.472L98.3998 23.48C98.2504 22.7707 97.9424 22.2667 97.4758 21.968C97.0278 21.6693 96.4678 21.52 95.7958 21.52C95.1238 21.52 94.6104 21.6413 94.2558 21.884C93.9011 22.108 93.7238 22.4253 93.7238 22.836C93.7238 23.284 93.9104 23.62 94.2838 23.844C94.6571 24.0493 95.1611 24.208 95.7958 24.32L96.5798 24.46C97.6251 24.6467 98.5678 24.8987 99.4078 25.216C100.266 25.5147 100.938 25.9533 101.424 26.532C101.928 27.092 102.18 27.8573 102.18 28.828C102.18 30.284 101.648 31.4133 100.584 32.216C99.5384 33 98.1291 33.392 96.3558 33.392Z" fill="#0A0D12"/>
<path d="M110.199 33.392C108.818 33.392 107.595 33.1027 106.531 32.524C105.486 31.9267 104.665 31.096 104.067 30.032C103.489 28.9493 103.199 27.68 103.199 26.224V25.888C103.199 24.432 103.489 23.172 104.067 22.108C104.646 21.0253 105.458 20.1947 106.503 19.616C107.549 19.0187 108.762 18.72 110.143 18.72C111.506 18.72 112.691 19.028 113.699 19.644C114.707 20.2413 115.491 21.0813 116.051 22.164C116.611 23.228 116.891 24.4693 116.891 25.888V27.092H106.783C106.821 28.044 107.175 28.8187 107.847 29.416C108.519 30.0133 109.341 30.312 110.311 30.312C111.301 30.312 112.029 30.0973 112.495 29.668C112.962 29.2387 113.317 28.7627 113.559 28.24L116.443 29.752C116.182 30.2373 115.799 30.7693 115.295 31.348C114.81 31.908 114.157 32.3933 113.335 32.804C112.514 33.196 111.469 33.392 110.199 33.392ZM106.811 24.46H113.307C113.233 23.6573 112.906 23.0133 112.327 22.528C111.767 22.0427 111.03 21.8 110.115 21.8C109.163 21.8 108.407 22.0427 107.847 22.528C107.287 23.0133 106.942 23.6573 106.811 24.46Z" fill="#0A0D12"/>
<path d="M131.033 33.392C129.521 33.392 128.186 33.1213 127.029 32.58C125.872 32.0387 124.966 31.264 124.313 30.256C123.66 29.248 123.333 28.0347 123.333 26.616V25.832H126.973V26.616C126.973 27.792 127.337 28.6787 128.065 29.276C128.793 29.8547 129.782 30.144 131.033 30.144C132.302 30.144 133.245 29.892 133.861 29.388C134.496 28.884 134.813 28.24 134.813 27.456C134.813 26.9147 134.654 26.476 134.337 26.14C134.038 25.804 133.59 25.5333 132.993 25.328C132.414 25.104 131.705 24.8987 130.865 24.712L130.221 24.572C128.877 24.2733 127.72 23.9 126.749 23.452C125.797 22.9853 125.06 22.3787 124.537 21.632C124.033 20.8853 123.781 19.9147 123.781 18.72C123.781 17.5253 124.061 16.508 124.621 15.668C125.2 14.8093 126.002 14.156 127.029 13.708C128.074 13.2413 129.297 13.008 130.697 13.008C132.097 13.008 133.338 13.2507 134.421 13.736C135.522 14.2027 136.381 14.912 136.997 15.864C137.632 16.7973 137.949 17.9733 137.949 19.392V20.232H134.309V19.392C134.309 18.6453 134.16 18.048 133.861 17.6C133.581 17.1333 133.17 16.7973 132.629 16.592C132.088 16.368 131.444 16.256 130.697 16.256C129.577 16.256 128.746 16.4707 128.205 16.9C127.682 17.3107 127.421 17.88 127.421 18.608C127.421 19.0933 127.542 19.504 127.785 19.84C128.046 20.176 128.429 20.456 128.933 20.68C129.437 20.904 130.081 21.1 130.865 21.268L131.509 21.408C132.909 21.7067 134.122 22.0893 135.149 22.556C136.194 23.0227 137.006 23.6387 137.585 24.404C138.164 25.1693 138.453 26.1493 138.453 27.344C138.453 28.5387 138.145 29.5933 137.529 30.508C136.932 31.404 136.073 32.1133 134.953 32.636C133.852 33.14 132.545 33.392 131.033 33.392Z" fill="#0A0D12"/>
<path d="M145.241 33C144.327 33 143.58 32.72 143.001 32.16C142.441 31.5813 142.161 30.816 142.161 29.864V22.024H138.689V19.112H142.161V14.8H145.689V19.112H149.497V22.024H145.689V29.248C145.689 29.808 145.951 30.088 146.473 30.088H149.161V33H145.241Z" fill="#0A0D12"/>
<path d="M156.399 33.392C155.279 33.392 154.243 33.1213 153.291 32.58C152.339 32.02 151.573 31.208 150.995 30.144C150.416 29.08 150.127 27.792 150.127 26.28V25.832C150.127 24.32 150.416 23.032 150.995 21.968C151.573 20.904 152.339 20.1013 153.291 19.56C154.261 19 155.297 18.72 156.399 18.72C157.668 18.72 158.629 18.9347 159.283 19.364C159.955 19.7747 160.449 20.2507 160.767 20.792H161.271V19.112H164.743V29.248C164.743 29.808 165.004 30.088 165.527 30.088H166.647V33H163.847C163.175 33 162.615 32.8133 162.167 32.44C161.737 32.0667 161.523 31.5533 161.523 30.9V30.872H161.019C160.701 31.5627 160.188 32.16 159.479 32.664C158.788 33.1493 157.761 33.392 156.399 33.392ZM157.463 30.312C158.564 30.312 159.469 29.9667 160.179 29.276C160.907 28.5667 161.271 27.54 161.271 26.196V25.916C161.271 24.572 160.907 23.5547 160.179 22.864C159.451 22.1547 158.545 21.8 157.463 21.8C156.38 21.8 155.475 22.1547 154.747 22.864C154.019 23.5547 153.655 24.572 153.655 25.916V26.196C153.655 27.54 154.019 28.5667 154.747 29.276C155.475 29.9667 156.38 30.312 157.463 30.312Z" fill="#0A0D12"/>
<path d="M167.883 33V19.112H171.355V20.68H171.859C172.064 20.12 172.4 19.7093 172.867 19.448C173.352 19.1867 173.912 19.056 174.547 19.056H176.227V22.192H174.491C173.595 22.192 172.858 22.4347 172.279 22.92C171.7 23.3867 171.411 24.1147 171.411 25.104V33H167.883Z" fill="#0A0D12"/>
</svg>
