<svg width="196" height="48" viewBox="0 0 196 48" fill="none" xmlns="http://www.w3.org/2000/svg">
<path fill-rule="evenodd" clip-rule="evenodd" d="M8.5 6C4.08172 6 0.5 9.58172 0.5 14V34C0.5 38.4183 4.08172 42 8.5 42H28.5C32.9183 42 36.5 38.4183 36.5 34V14C36.5 9.58172 32.9183 6 28.5 6H8.5ZM8.5 11C6.84315 11 5.5 12.3431 5.5 14V34C5.5 35.6569 6.84315 37 8.5 37H15.5C17.1569 37 18.5 35.6569 18.5 34V14C18.5 12.3431 17.1569 11 15.5 11H8.5Z" fill="#5925DC"/>
<path d="M46.5 33V12H54.27C55.95 12 57.34 12.28 58.44 12.84C59.54 13.4 60.36 14.17 60.9 15.15C61.44 16.13 61.71 17.23 61.71 18.45C61.71 19.61 61.45 20.68 60.93 21.66C60.41 22.62 59.6 23.4 58.5 24C57.4 24.58 55.99 24.87 54.27 24.87H50.34V33H46.5ZM50.34 21.75H54.03C55.37 21.75 56.33 21.46 56.91 20.88C57.51 20.28 57.81 19.47 57.81 18.45C57.81 17.41 57.51 16.6 56.91 16.02C56.33 15.42 55.37 15.12 54.03 15.12H50.34V21.75Z" fill="#0A0D12"/>
<path d="M69.2109 33.36C67.7709 33.36 66.4709 33.03 65.3109 32.37C64.1709 31.71 63.2609 30.8 62.5809 29.64C61.9209 28.46 61.5909 27.1 61.5909 25.56C61.5909 24.02 61.9309 22.67 62.6109 21.51C63.2909 20.33 64.2009 19.41 65.3409 18.75C66.5009 18.09 67.8009 17.76 69.2409 17.76C70.6609 17.76 71.9409 18.09 73.0809 18.75C74.2409 19.41 75.1509 20.33 75.8109 21.51C76.4909 22.67 76.8309 24.02 76.8309 25.56C76.8309 27.1 76.4909 28.46 75.8109 29.64C75.1509 30.8 74.2409 31.71 73.0809 32.37C71.9209 33.03 70.6309 33.36 69.2109 33.36ZM69.2109 30.03C70.2109 30.03 71.0809 29.66 71.8209 28.92C72.5609 28.16 72.9309 27.04 72.9309 25.56C72.9309 24.08 72.5609 22.97 71.8209 22.23C71.0809 21.47 70.2209 21.09 69.2409 21.09C68.2209 21.09 67.3409 21.47 66.6009 22.23C65.8809 22.97 65.5209 24.08 65.5209 25.56C65.5209 27.04 65.8809 28.16 66.6009 28.92C67.3409 29.66 68.2109 30.03 69.2109 30.03Z" fill="#0A0D12"/>
<path d="M80.847 33L76.497 18.12H80.307L82.887 28.83L85.887 18.12H90.147L93.147 28.83L95.757 18.12H99.567L95.187 33H91.197L88.017 21.87L84.837 33H80.847Z" fill="#0A0D12"/>
<path d="M106.892 33.36C105.392 33.36 104.062 33.04 102.902 32.4C101.742 31.76 100.832 30.86 100.172 29.7C99.5123 28.54 99.1823 27.2 99.1823 25.68C99.1823 24.14 99.5023 22.77 100.142 21.57C100.802 20.37 101.702 19.44 102.842 18.78C104.002 18.1 105.362 17.76 106.922 17.76C108.382 17.76 109.672 18.08 110.792 18.72C111.912 19.36 112.782 20.24 113.402 21.36C114.042 22.46 114.362 23.69 114.362 25.05C114.362 25.27 114.352 25.5 114.332 25.74C114.332 25.98 114.322 26.23 114.302 26.49H102.992C103.072 27.65 103.472 28.56 104.192 29.22C104.932 29.88 105.822 30.21 106.862 30.21C107.642 30.21 108.292 30.04 108.812 29.7C109.352 29.34 109.752 28.88 110.012 28.32H113.912C113.632 29.26 113.162 30.12 112.502 30.9C111.862 31.66 111.062 32.26 110.102 32.7C109.162 33.14 108.092 33.36 106.892 33.36ZM106.922 20.88C105.982 20.88 105.152 21.15 104.432 21.69C103.712 22.21 103.252 23.01 103.052 24.09H110.462C110.402 23.11 110.042 22.33 109.382 21.75C108.722 21.17 107.902 20.88 106.922 20.88Z" fill="#0A0D12"/>
<path d="M115.792 33V18.12H119.212L119.572 20.91C120.112 19.95 120.842 19.19 121.762 18.63C122.702 18.05 123.802 17.76 125.062 17.76V21.81H123.982C123.142 21.81 122.392 21.94 121.732 22.2C121.072 22.46 120.552 22.91 120.172 23.55C119.812 24.19 119.632 25.08 119.632 26.22V33H115.792Z" fill="#0A0D12"/>
<path d="M132.037 33.36C130.717 33.36 129.557 33.15 128.557 32.73C127.557 32.29 126.757 31.69 126.157 30.93C125.557 30.17 125.197 29.29 125.077 28.29H128.947C129.067 28.87 129.387 29.37 129.907 29.79C130.447 30.19 131.137 30.39 131.977 30.39C132.817 30.39 133.427 30.22 133.807 29.88C134.207 29.54 134.407 29.15 134.407 28.71C134.407 28.07 134.127 27.64 133.567 27.42C133.007 27.18 132.227 26.95 131.227 26.73C130.587 26.59 129.937 26.42 129.277 26.22C128.617 26.02 128.007 25.77 127.447 25.47C126.907 25.15 126.467 24.75 126.127 24.27C125.787 23.77 125.617 23.16 125.617 22.44C125.617 21.12 126.137 20.01 127.177 19.11C128.237 18.21 129.717 17.76 131.617 17.76C133.377 17.76 134.777 18.17 135.817 18.99C136.877 19.81 137.507 20.94 137.707 22.38H134.077C133.857 21.28 133.027 20.73 131.587 20.73C130.867 20.73 130.307 20.87 129.907 21.15C129.527 21.43 129.337 21.78 129.337 22.2C129.337 22.64 129.627 22.99 130.207 23.25C130.787 23.51 131.557 23.75 132.517 23.97C133.557 24.21 134.507 24.48 135.367 24.78C136.247 25.06 136.947 25.49 137.467 26.07C137.987 26.63 138.247 27.44 138.247 28.5C138.267 29.42 138.027 30.25 137.527 30.99C137.027 31.73 136.307 32.31 135.367 32.73C134.427 33.15 133.317 33.36 132.037 33.36Z" fill="#0A0D12"/>
<path d="M145.428 33.36C143.568 33.36 142.128 32.78 141.108 31.62C140.108 30.46 139.608 28.76 139.608 26.52V18.12H143.418V26.16C143.418 27.44 143.678 28.42 144.198 29.1C144.718 29.78 145.538 30.12 146.658 30.12C147.718 30.12 148.588 29.74 149.268 28.98C149.968 28.22 150.318 27.16 150.318 25.8V18.12H154.158V33H150.768L150.468 30.48C150.008 31.36 149.338 32.06 148.458 32.58C147.598 33.1 146.588 33.36 145.428 33.36Z" fill="#0A0D12"/>
<path d="M156.3 33V18.12H159.72L160.08 20.91C160.62 19.95 161.35 19.19 162.27 18.63C163.21 18.05 164.31 17.76 165.57 17.76V21.81H164.49C163.65 21.81 162.9 21.94 162.24 22.2C161.58 22.46 161.06 22.91 160.68 23.55C160.32 24.19 160.14 25.08 160.14 26.22V33H156.3Z" fill="#0A0D12"/>
<path d="M172.343 28.56C171.623 28.56 170.953 28.48 170.333 28.32L169.223 29.43C169.563 29.61 170.023 29.76 170.603 29.88C171.183 30 172.123 30.12 173.423 30.24C175.403 30.42 176.843 30.89 177.743 31.65C178.643 32.41 179.093 33.46 179.093 34.8C179.093 35.68 178.853 36.51 178.373 37.29C177.893 38.09 177.153 38.73 176.153 39.21C175.153 39.71 173.873 39.96 172.313 39.96C170.193 39.96 168.483 39.56 167.183 38.76C165.883 37.98 165.233 36.8 165.233 35.22C165.233 33.88 165.883 32.72 167.183 31.74C166.783 31.56 166.433 31.37 166.133 31.17C165.853 30.97 165.603 30.76 165.383 30.54V29.85L167.993 27.09C166.833 26.07 166.253 24.76 166.253 23.16C166.253 22.16 166.493 21.25 166.973 20.43C167.473 19.61 168.173 18.96 169.073 18.48C169.973 18 171.063 17.76 172.343 17.76C173.183 17.76 173.963 17.88 174.683 18.12H180.323V20.46L177.773 20.64C178.173 21.4 178.373 22.24 178.373 23.16C178.373 24.16 178.133 25.07 177.653 25.89C177.173 26.71 176.473 27.36 175.553 27.84C174.653 28.32 173.583 28.56 172.343 28.56ZM172.343 25.62C173.123 25.62 173.763 25.41 174.263 24.99C174.783 24.57 175.043 23.97 175.043 23.19C175.043 22.41 174.783 21.81 174.263 21.39C173.763 20.97 173.123 20.76 172.343 20.76C171.523 20.76 170.863 20.97 170.363 21.39C169.863 21.81 169.613 22.41 169.613 23.19C169.613 23.97 169.863 24.57 170.363 24.99C170.863 25.41 171.523 25.62 172.343 25.62ZM168.743 34.83C168.743 35.57 169.083 36.12 169.763 36.48C170.463 36.86 171.313 37.05 172.313 37.05C173.273 37.05 174.053 36.85 174.653 36.45C175.253 36.07 175.553 35.55 175.553 34.89C175.553 34.35 175.353 33.9 174.953 33.54C174.573 33.18 173.803 32.96 172.643 32.88C171.823 32.82 171.063 32.73 170.363 32.61C169.783 32.93 169.363 33.28 169.103 33.66C168.863 34.04 168.743 34.43 168.743 34.83Z" fill="#0A0D12"/>
<path d="M187.967 33.36C186.467 33.36 185.137 33.04 183.977 32.4C182.817 31.76 181.907 30.86 181.247 29.7C180.587 28.54 180.257 27.2 180.257 25.68C180.257 24.14 180.577 22.77 181.217 21.57C181.877 20.37 182.777 19.44 183.917 18.78C185.077 18.1 186.437 17.76 187.997 17.76C189.457 17.76 190.747 18.08 191.867 18.72C192.987 19.36 193.857 20.24 194.477 21.36C195.117 22.46 195.437 23.69 195.437 25.05C195.437 25.27 195.427 25.5 195.407 25.74C195.407 25.98 195.397 26.23 195.377 26.49H184.067C184.147 27.65 184.547 28.56 185.267 29.22C186.007 29.88 186.897 30.21 187.937 30.21C188.717 30.21 189.367 30.04 189.887 29.7C190.427 29.34 190.827 28.88 191.087 28.32H194.987C194.707 29.26 194.237 30.12 193.577 30.9C192.937 31.66 192.137 32.26 191.177 32.7C190.237 33.14 189.167 33.36 187.967 33.36ZM187.997 20.88C187.057 20.88 186.227 21.15 185.507 21.69C184.787 22.21 184.327 23.01 184.127 24.09H191.537C191.477 23.11 191.117 22.33 190.457 21.75C189.797 21.17 188.977 20.88 187.997 20.88Z" fill="#0A0D12"/>
</svg>
